<mxfile host="65bd71144e">
    <diagram id="N-Y1tkPyOTOdXdy4aFnt" name="Page-1">
        <mxGraphModel dx="923" dy="1053" grid="1" gridSize="10" guides="1" tooltips="1" connect="1" arrows="1" fold="1" page="0" pageScale="1" pageWidth="827" pageHeight="1169" math="0" shadow="0">
            <root>
                <mxCell id="0"/>
                <mxCell id="1" parent="0"/>
                <mxCell id="27" style="edgeStyle=none;html=1;entryX=-0.001;entryY=0.49;entryDx=0;entryDy=0;entryPerimeter=0;" parent="1" source="2" edge="1">
                    <mxGeometry relative="1" as="geometry">
                        <mxPoint x="479.85000000000014" y="-0.2999999999999545" as="targetPoint"/>
                    </mxGeometry>
                </mxCell>
                <mxCell id="2" value="idle" style="rounded=1;whiteSpace=wrap;html=1;verticalAlign=top;" parent="1" vertex="1">
                    <mxGeometry x="160" y="-40" width="160" height="80" as="geometry"/>
                </mxCell>
                <mxCell id="26" value="request / request" style="text;html=1;align=center;verticalAlign=middle;resizable=0;points=[];autosize=1;strokeColor=none;fillColor=none;" parent="1" vertex="1">
                    <mxGeometry x="345" y="-40" width="110" height="30" as="geometry"/>
                </mxCell>
                <mxCell id="40" value="entry / scan;locked;red" style="text;html=1;align=left;verticalAlign=middle;resizable=0;points=[];autosize=1;strokeColor=none;fillColor=none;" parent="1" vertex="1">
                    <mxGeometry x="163" y="-20" width="140" height="30" as="geometry"/>
                </mxCell>
                <mxCell id="52" style="edgeStyle=none;html=1;entryX=0;entryY=0.5;entryDx=0;entryDy=0;fontColor=#FFFFFF;" parent="1" source="51" target="2" edge="1">
                    <mxGeometry relative="1" as="geometry">
                        <mxPoint x="80" y="55" as="targetPoint"/>
                    </mxGeometry>
                </mxCell>
                <mxCell id="51" value="" style="ellipse;whiteSpace=wrap;html=1;aspect=fixed;" parent="1" vertex="1">
                    <mxGeometry x="100" y="-5" width="10" height="10" as="geometry"/>
                </mxCell>
                <mxCell id="77" value="S1" style="rounded=1;whiteSpace=wrap;html=1;verticalAlign=top;" vertex="1" parent="1">
                    <mxGeometry x="480" y="-40" width="160" height="80" as="geometry"/>
                </mxCell>
                <mxCell id="78" value="S2" style="rounded=1;whiteSpace=wrap;html=1;verticalAlign=top;" vertex="1" parent="1">
                    <mxGeometry x="480" y="95" width="160" height="80" as="geometry"/>
                </mxCell>
                <mxCell id="80" style="edgeStyle=none;html=1;" edge="1" parent="1">
                    <mxGeometry relative="1" as="geometry">
                        <mxPoint x="720" as="targetPoint"/>
                        <mxPoint x="640" y="-0.3000625390868201" as="sourcePoint"/>
                    </mxGeometry>
                </mxCell>
                <mxCell id="81" style="edgeStyle=none;html=1;entryX=0.5;entryY=0;entryDx=0;entryDy=0;exitX=0.5;exitY=1;exitDx=0;exitDy=0;" edge="1" parent="1" source="77" target="78">
                    <mxGeometry relative="1" as="geometry">
                        <mxPoint x="709.8500000000001" y="60.00000000000004" as="targetPoint"/>
                        <mxPoint x="550" y="60.199937460913176" as="sourcePoint"/>
                    </mxGeometry>
                </mxCell>
                <mxCell id="82" value="/ ok" style="text;html=1;align=center;verticalAlign=middle;resizable=0;points=[];autosize=1;strokeColor=none;fillColor=none;" vertex="1" parent="1">
                    <mxGeometry x="655" y="-30" width="40" height="30" as="geometry"/>
                </mxCell>
                <mxCell id="83" value="/ no" style="text;html=1;align=center;verticalAlign=middle;resizable=0;points=[];autosize=1;strokeColor=none;fillColor=none;" vertex="1" parent="1">
                    <mxGeometry x="520" y="50" width="40" height="30" as="geometry"/>
                </mxCell>
                <mxCell id="84" value="entry / red;help&lt;br&gt;entry / start_timer(t, 10000)" style="text;html=1;align=left;verticalAlign=middle;resizable=0;points=[];autosize=1;strokeColor=none;fillColor=none;" vertex="1" parent="1">
                    <mxGeometry x="484" y="111" width="170" height="40" as="geometry"/>
                </mxCell>
                <mxCell id="87" style="edgeStyle=none;html=1;entryX=0.75;entryY=1;entryDx=0;entryDy=0;exitX=0;exitY=0.5;exitDx=0;exitDy=0;" edge="1" parent="1" source="78" target="2">
                    <mxGeometry relative="1" as="geometry">
                        <mxPoint x="255.00000000000014" y="95.00000000000004" as="targetPoint"/>
                        <mxPoint x="440" y="140" as="sourcePoint"/>
                        <Array as="points">
                            <mxPoint x="280" y="135"/>
                        </Array>
                    </mxGeometry>
                </mxCell>
                <mxCell id="89" value="t /" style="text;html=1;align=center;verticalAlign=middle;resizable=0;points=[];autosize=1;strokeColor=none;fillColor=none;" vertex="1" parent="1">
                    <mxGeometry x="315" y="135" width="30" height="30" as="geometry"/>
                </mxCell>
                <mxCell id="91" value="S3" style="rounded=1;whiteSpace=wrap;html=1;verticalAlign=top;" vertex="1" parent="1">
                    <mxGeometry x="720" y="-40" width="180" height="80" as="geometry"/>
                </mxCell>
                <mxCell id="88" value="entry / unlocked;green;welcome&lt;br&gt;entry / start_timer(t, 3000)" style="text;html=1;align=left;verticalAlign=middle;resizable=0;points=[];autosize=1;strokeColor=none;fillColor=none;" vertex="1" parent="1">
                    <mxGeometry x="724" y="-20" width="190" height="40" as="geometry"/>
                </mxCell>
                <mxCell id="92" value="" style="endArrow=classic;html=1;exitX=0.5;exitY=0;exitDx=0;exitDy=0;entryX=0.5;entryY=0;entryDx=0;entryDy=0;" edge="1" parent="1" source="91" target="2">
                    <mxGeometry width="50" height="50" relative="1" as="geometry">
                        <mxPoint x="800" y="-50" as="sourcePoint"/>
                        <mxPoint x="150" y="-130" as="targetPoint"/>
                        <Array as="points">
                            <mxPoint x="810" y="-120"/>
                            <mxPoint x="240" y="-120"/>
                        </Array>
                    </mxGeometry>
                </mxCell>
                <mxCell id="93" value="/ boarded" style="text;html=1;align=center;verticalAlign=middle;resizable=0;points=[];autosize=1;strokeColor=none;fillColor=none;" vertex="1" parent="1">
                    <mxGeometry x="495" y="-150" width="70" height="30" as="geometry"/>
                </mxCell>
                <mxCell id="94" style="edgeStyle=none;html=1;entryX=0.25;entryY=1;entryDx=0;entryDy=0;exitX=0.5;exitY=1;exitDx=0;exitDy=0;" edge="1" parent="1" source="91" target="2">
                    <mxGeometry relative="1" as="geometry">
                        <mxPoint x="240" y="135" as="targetPoint"/>
                        <mxPoint x="480" y="230" as="sourcePoint"/>
                        <Array as="points">
                            <mxPoint x="810" y="200"/>
                            <mxPoint x="520" y="200"/>
                            <mxPoint x="200" y="200"/>
                        </Array>
                    </mxGeometry>
                </mxCell>
                <mxCell id="95" value="t /" style="text;html=1;align=center;verticalAlign=middle;resizable=0;points=[];autosize=1;strokeColor=none;fillColor=none;" vertex="1" parent="1">
                    <mxGeometry x="495" y="205" width="30" height="30" as="geometry"/>
                </mxCell>
            </root>
        </mxGraphModel>
    </diagram>
</mxfile>